<svg width="30" height="30" viewBox="0 0 30 30" fill="none" xmlns="http://www.w3.org/2000/svg">
<path d="M7.5 10C7.5 7.2375 9.7375 5 12.5 5C15.2625 5 17.5 7.2375 17.5 10C17.5 12.7625 15.2625 15 12.5 15C9.7375 15 7.5 12.7625 7.5 10ZM15 22.75C15 21.55 15.625 20.425 16.5 19.675V18.125C16.5 18.0625 16.525 17.9875 16.525 17.925C15.2875 17.65 13.9375 17.5 12.5 17.5C6.975 17.5 2.5 19.7375 2.5 22.5V25H15V22.75ZM27.5 22.875V27.25C27.5 28 26.75 28.75 25.875 28.75H19C18.25 28.75 17.5 28 17.5 27.125V22.75C17.5 22 18.25 21.25 19 21.25V18.125C19 16.375 20.75 15 22.5 15C24.25 15 26 16.375 26 18.125V18.75H24.375V18.125C24.375 17.125 23.5 16.5 22.5 16.5C21.5 16.5 20.625 17.125 20.625 18.125V21.25H26C26.75 21.25 27.5 22 27.5 22.875Z" fill="white"/>
</svg>
