<svg width="30" height="30" viewBox="0 0 30 30" fill="none" xmlns="http://www.w3.org/2000/svg">
<path fill-rule="evenodd" clip-rule="evenodd" d="M15.0001 16.1932C18.954 16.1932 22.1592 12.9879 22.1592 9.03409C22.1592 5.08023 18.954 1.875 15.0001 1.875C11.0463 1.875 7.84103 5.08023 7.84103 9.03409C7.84103 12.9879 11.0463 16.1932 15.0001 16.1932ZM15.0001 14.3182C17.9184 14.3182 20.2842 11.9524 20.2842 9.03409C20.2842 6.11577 17.9184 3.75 15.0001 3.75C12.0818 3.75 9.71603 6.11577 9.71603 9.03409C9.71603 11.9524 12.0818 14.3182 15.0001 14.3182Z" fill="#707070"/>
<path d="M7.5 22.5C6.46447 22.5 5.625 23.3395 5.625 24.375V27.1875C5.625 27.7053 5.20527 28.125 4.6875 28.125C4.16973 28.125 3.75 27.7053 3.75 27.1875V24.375C3.75 22.3039 5.42893 20.625 7.5 20.625H13.125C13.6428 20.625 14.0625 21.0447 14.0625 21.5625C14.0625 22.0803 13.6428 22.5 13.125 22.5H7.5Z" fill="#707070"/>
<path d="M25.115 20.2631C25.4329 19.8544 25.3593 19.2654 24.9506 18.9475C24.5419 18.6296 23.9529 18.7032 23.635 19.1119L19.9087 23.9029L17.5346 21.5525C17.1666 21.1882 16.573 21.1912 16.2088 21.5592C15.8445 21.9271 15.8475 22.5207 16.2154 22.885L19.3404 25.9787C19.5309 26.1673 19.7931 26.2654 20.0606 26.248C20.3281 26.2307 20.5754 26.0997 20.74 25.8881L25.115 20.2631Z" fill="#707070"/>
</svg>
