<svg width="28" height="28" viewBox="0 0 28 28" fill="none" xmlns="http://www.w3.org/2000/svg">
<path fill-rule="evenodd" clip-rule="evenodd" d="M20.2709 23.2874C21.8799 21.4353 22.75 18.9698 22.75 16.4418C22.75 15.1668 22.3715 13.8258 21.8722 12.5826C21.3644 11.3179 20.6818 10.0339 19.9656 8.84023C18.5334 6.45296 16.8889 4.29899 16.0048 3.18936C14.9828 1.90657 13.0488 1.88335 11.9996 3.1519C11.1052 4.2332 9.45774 6.32353 8.02467 8.69521C6.64142 10.9845 5.25 13.8647 5.25 16.4418C5.25 18.9698 6.12015 21.4353 7.72912 23.2874C9.34485 25.1474 11.5935 26.25 14 26.25C16.4065 26.25 18.6552 25.1474 20.2709 23.2874ZM21 16.4418C21 18.579 20.2625 20.6286 18.9497 22.1398C17.8449 23.4116 16.4089 24.2144 14.875 24.4368V21.6596L18.1524 18.2781C18.4906 17.9292 18.4924 17.3678 18.1564 17.0244C17.8203 16.6809 17.2737 16.6853 16.9355 17.0342L14.875 19.1602V16.7845L17.3649 14.2157C17.7031 13.8667 17.7048 13.3054 17.3688 12.9619C17.0327 12.6184 16.4861 12.6228 16.1479 12.9718L14 15.1879L11.8521 12.9718C11.5139 12.6228 10.9673 12.6184 10.6312 12.9619C10.2952 13.3054 10.2969 13.8667 10.6351 14.2157L13.125 16.7846V19.1598L10.6711 16.628C10.3329 16.279 9.78631 16.2746 9.45026 16.6181C9.11422 16.9616 9.11597 17.5229 9.45418 17.8719L13.125 21.6592V24.4368C11.5911 24.2144 10.1551 23.4116 9.05025 22.1398C7.7375 20.6286 7 18.579 7 16.4418C7 12.3297 11.6106 6.36795 13.3481 4.26727C13.6871 3.85732 14.3046 3.86376 14.6361 4.27984C16.3613 6.44514 21 12.6224 21 16.4418Z" fill="#707070"/>
</svg>
