<svg width="32" height="32" viewBox="0 0 32 32" fill="none" xmlns="http://www.w3.org/2000/svg">
<path fill-rule="evenodd" clip-rule="evenodd" d="M2.14946 13.6251C2 14.1564 2 14.7338 2 15.8886V25.1496C2 26.8297 2 27.6698 2.32698 28.3115C2.6146 28.876 3.07354 29.335 3.63803 29.6226C4.27976 29.9496 5.11984 29.9496 6.8 29.9496H10.0694C10.8052 29.9496 11.1731 29.9496 11.4784 29.8854C12.6426 29.6406 13.5521 28.731 13.7969 27.5669C13.8611 27.2616 13.8611 26.8937 13.8611 26.1579V24.5051C13.8611 23.3238 14.8187 22.3662 16 22.3662C17.1813 22.3662 18.1389 23.3238 18.1389 24.5051V26.1579C18.1389 26.8937 18.1389 27.2616 18.2031 27.5669C18.4479 28.731 19.3574 29.6406 20.5216 29.8854C20.8269 29.9496 21.1948 29.9496 21.9306 29.9496H25.2C26.8802 29.9496 27.7202 29.9496 28.362 29.6226C28.9265 29.335 29.3854 28.876 29.673 28.3115C30 27.6698 30 26.8297 30 25.1496V15.8886C30 14.7338 30 14.1564 29.8505 13.6251C29.7181 13.1545 29.5006 12.7121 29.2087 12.32C28.8792 11.8772 28.4219 11.5247 27.5072 10.8197L19.9073 4.9614C18.5089 3.88349 17.8097 3.34453 17.0387 3.13721C16.3583 2.95426 15.6417 2.95426 14.9613 3.13721C14.1903 3.34453 13.4911 3.88349 12.0927 4.9614L4.49275 10.8197C3.57814 11.5247 3.12084 11.8772 2.7913 12.32C2.49939 12.7121 2.28185 13.1545 2.14946 13.6251ZM28 25.1496V15.8886C28 14.6199 27.9825 14.37 27.9253 14.1667C27.8591 13.9314 27.7503 13.7102 27.6044 13.5142C27.4783 13.3448 27.2911 13.1783 26.2862 12.4038L18.6862 6.54542C17.1428 5.35565 16.8108 5.14698 16.5193 5.06861C16.1792 4.97713 15.8208 4.97713 15.4807 5.06861C15.1892 5.14698 14.8572 5.35565 13.3138 6.54542L5.71377 12.4038C4.70893 13.1783 4.52174 13.3448 4.39565 13.5142C4.2497 13.7102 4.14093 13.9314 4.07473 14.1667C4.01754 14.37 4 14.6199 4 15.8886V25.1496C4 26.0226 4.00156 26.5572 4.03423 26.9571C4.04945 27.1434 4.06857 27.2561 4.08469 27.3246C4.09236 27.3571 4.09879 27.3772 4.10265 27.388C4.10636 27.3984 4.10899 27.4036 4.10899 27.4036C4.20487 27.5917 4.35785 27.7447 4.54601 27.8406C4.54601 27.8406 4.55118 27.8432 4.56158 27.8469C4.57241 27.8508 4.59244 27.8572 4.625 27.8649C4.69345 27.881 4.80617 27.9001 4.99247 27.9153C5.39239 27.948 5.92692 27.9496 6.8 27.9496H10.0694C10.4517 27.9496 10.6855 27.9493 10.8631 27.9428C11.0326 27.9367 11.0732 27.9268 11.0669 27.9282C11.4549 27.8466 11.7581 27.5434 11.8397 27.1553C11.8384 27.1617 11.8483 27.121 11.8544 26.9516C11.8608 26.774 11.8611 26.5401 11.8611 26.1579V24.5051C11.8611 22.2193 13.7142 20.3662 16 20.3662C18.2858 20.3662 20.1389 22.2193 20.1389 24.5051V26.1579C20.1389 26.5401 20.1392 26.774 20.1456 26.9516C20.1517 27.121 20.1616 27.1617 20.1603 27.1553C20.2419 27.5434 20.5451 27.8466 20.9331 27.9282C20.9268 27.9268 20.9674 27.9367 21.1369 27.9428C21.3145 27.9493 21.5483 27.9496 21.9306 27.9496H25.2C26.0731 27.9496 26.6076 27.948 27.0075 27.9153C27.1938 27.9001 27.3065 27.881 27.375 27.8649C27.4076 27.8572 27.4276 27.8508 27.4384 27.8469C27.4451 27.8445 27.4492 27.8428 27.4516 27.8417L27.454 27.8406C27.6422 27.7447 27.7951 27.5917 27.891 27.4036C27.891 27.4036 27.8936 27.3984 27.8973 27.388C27.9012 27.3772 27.9076 27.3571 27.9153 27.3246C27.9314 27.2561 27.9505 27.1434 27.9658 26.9571C27.9984 26.5572 28 26.0226 28 25.1496Z" fill="#707070"/>
</svg>
