<svg width="24" height="24" viewBox="0 0 24 24" fill="none" xmlns="http://www.w3.org/2000/svg">
<path fill-rule="evenodd" clip-rule="evenodd" d="M1.6121 10.2188C1.5 10.6173 1.5 11.0504 1.5 11.9164V18.8622C1.5 20.1223 1.5 20.7523 1.74524 21.2336C1.96095 21.657 2.30516 22.0012 2.72852 22.2169C3.20982 22.4622 3.83988 22.4622 5.1 22.4622H7.55208C8.10392 22.4622 8.37984 22.4622 8.60883 22.414C9.48194 22.2304 10.1641 21.5483 10.3477 20.6752C10.3958 20.4462 10.3958 20.1703 10.3958 19.6184V18.3788C10.3958 17.4929 11.114 16.7747 12 16.7747C12.886 16.7747 13.6042 17.4929 13.6042 18.3788V19.6184C13.6042 20.1703 13.6042 20.4462 13.6523 20.6752C13.8359 21.5483 14.5181 22.2304 15.3912 22.414C15.6202 22.4622 15.8961 22.4622 16.4479 22.4622H18.9C20.1601 22.4622 20.7902 22.4622 21.2715 22.2169C21.6948 22.0012 22.039 21.657 22.2548 21.2336C22.5 20.7523 22.5 20.1223 22.5 18.8622V11.9164C22.5 11.0504 22.5 10.6173 22.3879 10.2188C22.2886 9.86588 22.1255 9.53411 21.9065 9.23999C21.6594 8.90793 21.3164 8.64356 20.6304 8.1148L14.9304 3.72105C13.8817 2.91262 13.3573 2.5084 12.779 2.35291C12.2687 2.2157 11.7313 2.2157 11.221 2.35291C10.6427 2.5084 10.1183 2.91262 9.06956 3.72105L3.36956 8.1148C2.68361 8.64355 2.34063 8.90793 2.09347 9.23999C1.87455 9.53411 1.71139 9.86588 1.6121 10.2188ZM21 18.8622V11.9164C21 10.9649 20.9868 10.7775 20.944 10.625C20.8943 10.4486 20.8127 10.2827 20.7033 10.1356C20.6087 10.0086 20.4683 9.88373 19.7147 9.30281L14.0147 4.90906C12.8571 4.01674 12.6081 3.86023 12.3895 3.80145C12.1344 3.73285 11.8656 3.73285 11.6105 3.80145C11.3919 3.86023 11.1429 4.01674 9.98532 4.90907L4.28532 9.30281C3.5317 9.88373 3.3913 10.0086 3.29674 10.1356C3.18727 10.2827 3.10569 10.4486 3.05605 10.625C3.01316 10.7775 3 10.9649 3 11.9164V18.8622C3 19.517 3.00117 19.9179 3.02567 20.2178C3.03709 20.3575 3.05143 20.4421 3.06352 20.4934C3.06927 20.5178 3.07409 20.5329 3.07699 20.541C3.07977 20.5488 3.08175 20.5527 3.08175 20.5527C3.15365 20.6938 3.26839 20.8085 3.40951 20.8804C3.40951 20.8804 3.41338 20.8824 3.42118 20.8852C3.42931 20.8881 3.44433 20.8929 3.46875 20.8987C3.52009 20.9107 3.60463 20.9251 3.74435 20.9365C4.04429 20.961 4.44519 20.9622 5.1 20.9622H7.55208C7.83874 20.9622 8.01414 20.9619 8.14736 20.9571C8.27441 20.9525 8.30492 20.9451 8.30017 20.9461C8.5912 20.8849 8.81858 20.6575 8.87978 20.3665C8.87878 20.3713 8.8862 20.3407 8.89079 20.2137C8.89561 20.0805 8.89583 19.9051 8.89583 19.6184V18.3788C8.89583 16.6645 10.2856 15.2747 12 15.2747C13.7144 15.2747 15.1042 16.6645 15.1042 18.3788V19.6184C15.1042 19.9051 15.1044 20.0805 15.1092 20.2137C15.1138 20.3407 15.1212 20.3713 15.1202 20.3665C15.1814 20.6575 15.4088 20.8849 15.6998 20.9461C15.6951 20.9451 15.7256 20.9525 15.8526 20.9571C15.9859 20.9619 16.1613 20.9622 16.4479 20.9622H18.9C19.5548 20.9622 19.9557 20.961 20.2556 20.9365C20.3954 20.9251 20.4799 20.9107 20.5313 20.8987C20.5557 20.8929 20.5707 20.8881 20.5788 20.8852C20.5838 20.8834 20.5869 20.8821 20.5887 20.8813L20.5905 20.8804C20.7316 20.8085 20.8463 20.6938 20.9183 20.5527C20.9183 20.5527 20.9202 20.5488 20.923 20.541C20.9259 20.5329 20.9307 20.5178 20.9365 20.4934C20.9486 20.4421 20.9629 20.3575 20.9743 20.2178C20.9988 19.9179 21 19.517 21 18.8622Z" fill="#00A49D"/>
</svg>
