<svg width="24" height="24" viewBox="0 0 24 24" fill="none" xmlns="http://www.w3.org/2000/svg">
<path d="M22.125 11.5464C22.125 11.1322 21.7892 10.7964 21.375 10.7964C20.9608 10.7964 20.625 11.1322 20.625 11.5464L20.625 20.5464H12C11.5857 20.5464 11.25 20.8822 11.25 21.2964C11.25 21.7106 11.5857 22.0464 12 22.0464H21.375C21.7892 22.0464 22.125 21.7106 22.125 21.2964L22.125 11.5464Z" fill="#00A49D"/>
<path d="M1.875 12.375C1.875 12.7892 2.21078 13.125 2.625 13.125C3.03921 13.125 3.375 12.7892 3.375 12.375L3.37503 3.375H12C12.4143 3.375 12.75 3.03921 12.75 2.625C12.75 2.21079 12.4143 1.875 12 1.875L2.62504 1.875C2.21082 1.875 1.87504 2.21079 1.87504 2.625L1.875 12.375Z" fill="#00A49D"/>
</svg>
