<svg width="50" height="50" viewBox="0 0 50 50" fill="none" xmlns="http://www.w3.org/2000/svg">
<path d="M25 46.3447C36.6562 46.3447 46.3446 36.6563 46.3446 25C46.3446 13.3233 36.6348 3.6554 24.9786 3.6554C13.3027 3.6554 3.65625 13.3233 3.65625 25C3.65625 36.6563 13.3232 46.3447 25 46.3447ZM17.4036 32.7858V24.4152C17.4036 23.0545 17.9268 22.3643 19.0571 22.1965V19.6643C19.0571 15.584 21.5259 12.9474 25 12.9474C28.4741 12.9474 30.9429 15.584 30.9429 19.6643V22.1759C32.0518 22.3429 32.575 23.0331 32.575 24.4152V32.7858C32.575 34.3554 31.8848 35.0661 30.4411 35.0661H19.5589C18.0946 35.0661 17.4036 34.3554 17.4036 32.7858ZM21.2339 22.1545L28.767 22.134V19.4349C28.767 16.7983 27.2598 15.0608 24.9991 15.0608C22.7402 15.0608 21.233 16.7974 21.233 19.4349L21.2339 22.1545Z" fill="#262626" fill-opacity="0.5"/>
</svg>
