<svg width="28" height="28" viewBox="0 0 28 28" fill="none" xmlns="http://www.w3.org/2000/svg">
<path d="M18.1907 16.2872C18.4874 15.9057 18.4187 15.356 18.0372 15.0593C17.6557 14.7626 17.106 14.8313 16.8093 15.2128L13.3314 19.6844L11.1156 17.4907C10.7722 17.1507 10.2182 17.1535 9.87818 17.4969C9.53819 17.8403 9.54098 18.3943 9.8844 18.7343L12.8011 21.6218C12.9789 21.7979 13.2235 21.8893 13.4732 21.8732C13.7229 21.857 13.9537 21.7347 14.1073 21.5372L18.1907 16.2872Z" fill="#707070"/>
<path fill-rule="evenodd" clip-rule="evenodd" d="M9.625 2.625C9.625 2.14175 9.23325 1.75 8.75 1.75C8.26675 1.75 7.875 2.14175 7.875 2.625V5.25H4.375C2.92525 5.25 1.75 6.42525 1.75 7.875V23.625C1.75 25.0747 2.92525 26.25 4.375 26.25H23.625C25.0747 26.25 26.25 25.0747 26.25 23.625V7.875C26.25 6.42525 25.0747 5.25 23.625 5.25H20.125V2.625C20.125 2.14175 19.7332 1.75 19.25 1.75C18.7668 1.75 18.375 2.14175 18.375 2.625V5.25H9.625V2.625ZM18.375 7.875V7H9.625V7.875C9.625 8.35825 9.23325 8.75 8.75 8.75C8.26675 8.75 7.875 8.35825 7.875 7.875V7H4.375C3.89175 7 3.5 7.39175 3.5 7.875V11.9H24.5V7.875C24.5 7.39175 24.1082 7 23.625 7H20.125V7.875C20.125 8.35825 19.7332 8.75 19.25 8.75C18.7668 8.75 18.375 8.35825 18.375 7.875ZM3.5 23.625V13.65H24.5V23.625C24.5 24.1082 24.1082 24.5 23.625 24.5H4.375C3.89175 24.5 3.5 24.1082 3.5 23.625Z" fill="#707070"/>
</svg>
