<svg width="28" height="28" viewBox="0 0 28 28" fill="none" xmlns="http://www.w3.org/2000/svg">
<path fill-rule="evenodd" clip-rule="evenodd" d="M3.82902 6.02805C3.87058 5.25435 4.34504 4.68325 4.83917 4.34596L7.30388 2.66362C8.69685 1.71282 10.5969 2.07127 11.5477 3.46424L13.8204 6.79388C14.8727 8.33561 14.476 10.4385 12.9343 11.4909C12.9102 11.5073 12.904 11.5401 12.9204 11.5641L15.8467 15.8513C15.8631 15.8754 15.896 15.8815 15.92 15.8651C17.4617 14.8128 19.5646 15.2095 20.617 16.7512L22.7329 19.8512C23.6548 21.2018 23.3073 23.0442 21.9566 23.9661L19.5414 25.6147C18.9152 26.042 18.0766 26.2038 17.2952 25.8828C13.6651 24.3916 10.2512 20.5822 7.80294 16.6962C6.56657 14.7338 5.54859 12.708 4.85249 10.8708C4.16557 9.05784 3.75845 7.34156 3.82902 6.02805ZM5.82576 5.79135C5.62611 5.92763 5.57999 6.05685 5.5765 6.12194C5.52562 7.06881 5.82977 8.51096 6.48897 10.2508C7.139 11.9664 8.10199 13.8879 9.28359 15.7634C11.6713 19.5533 14.8412 22.9828 17.9601 24.2641C18.1192 24.3294 18.3412 24.3151 18.5548 24.1693L20.97 22.5207C21.5224 22.1436 21.6646 21.3902 21.2875 20.8377L19.1716 17.7378C18.6641 16.9944 17.65 16.803 16.9066 17.3105C16.0843 17.8718 14.9626 17.6602 14.4013 16.8379L11.475 12.5507C10.9138 11.7284 11.1254 10.6068 11.9477 10.0455C12.6911 9.538 12.8824 8.52393 12.375 7.78046L10.1023 4.45082C9.69634 3.85612 8.88517 3.70309 8.29046 4.10902L5.82576 5.79135Z" fill="#707070"/>
</svg>
