<svg width="32" height="32" viewBox="0 0 32 32" fill="none" xmlns="http://www.w3.org/2000/svg">
<path fill-rule="evenodd" clip-rule="evenodd" d="M4.37658 6.8892C4.42408 6.00497 4.96632 5.35228 5.53104 4.96682L8.34785 3.04414C9.93982 1.95751 12.1112 2.36717 13.1979 3.95913L15.7953 7.76443C16.9979 9.52641 16.5445 11.9297 14.7826 13.1324C14.7551 13.1512 14.748 13.1887 14.7668 13.2162L18.1111 18.1158C18.1299 18.1433 18.1674 18.1503 18.1948 18.1316C19.9568 16.9289 22.3602 17.3823 23.5628 19.1443L25.981 22.687C27.0347 24.2307 26.6374 26.3362 25.0938 27.3898L22.3335 29.2739C21.618 29.7623 20.6595 29.9472 19.7665 29.5803C15.6179 27.8761 11.7162 23.5226 8.9182 19.0814C7.50521 16.8386 6.3418 14.5235 5.54627 12.4238C4.76122 10.3518 4.29593 8.39035 4.37658 6.8892ZM6.65857 6.61869C6.4304 6.77443 6.37769 6.92212 6.3737 6.9965C6.31556 8.07864 6.66315 9.72681 7.41652 11.7152C8.15941 13.6759 9.25997 15.8719 10.6104 18.0153C13.3391 22.3466 16.9619 26.266 20.5264 27.7304C20.7082 27.805 20.9619 27.7887 21.206 27.622L23.9663 25.7379C24.5976 25.307 24.7601 24.4459 24.3291 23.8146L21.911 20.2718C21.331 19.4221 20.172 19.2035 19.3224 19.7834C18.3826 20.4249 17.1007 20.1831 16.4592 19.2433L13.1149 14.3437C12.4734 13.4039 12.7152 12.122 13.655 11.4805C14.5047 10.9006 14.7234 9.74163 14.1434 8.89196L11.546 5.08666C11.0821 4.407 10.155 4.2321 9.47537 4.69602L6.65857 6.61869Z" fill="#00A49D"/>
</svg>
