<svg width="32" height="32" viewBox="0 0 32 32" fill="none" xmlns="http://www.w3.org/2000/svg">
<path d="M9.28067 6.69392C9.83763 5.08167 11.3557 4 13.0614 4H18.9386C20.6443 4 22.1624 5.08168 22.7193 6.69392L22.8796 7.1579L26.5 7.1579C28.433 7.1579 30 8.7249 30 10.6579V24.5C30 26.433 28.433 28 26.5 28H5.5C3.567 28 2 26.433 2 24.5V10.6579C2 8.7249 3.567 7.1579 5.5 7.1579L9.12039 7.1579L9.28067 6.69392L11.1711 7.34696L11.0108 7.81094C10.7323 8.61706 9.97325 9.1579 9.12039 9.1579H5.5C4.67157 9.1579 4 9.82947 4 10.6579V24.5C4 25.3284 4.67157 26 5.5 26H26.5C27.3284 26 28 25.3284 28 24.5V10.6579C28 9.82947 27.3284 9.1579 26.5 9.1579H22.8796C22.0267 9.1579 21.2677 8.61706 20.9892 7.81094L20.8289 7.34696C20.5505 6.54084 19.7914 6 18.9386 6H13.0614C12.2086 6 11.4495 6.54084 11.1711 7.34696L9.28067 6.69392Z" fill="#242729"/>
<path fill-rule="evenodd" clip-rule="evenodd" d="M16 21C18.2091 21 20 19.2091 20 17C20 14.7909 18.2091 13 16 13C13.7909 13 12 14.7909 12 17C12 19.2091 13.7909 21 16 21ZM16 19C17.1046 19 18 18.1046 18 17C18 15.8954 17.1046 15 16 15C14.8954 15 14 15.8954 14 17C14 18.1046 14.8954 19 16 19Z" fill="#242729"/>
<path d="M7 12C6.44772 12 6 12.4477 6 13C6 13.5523 6.44772 14 7 14H10C10.5523 14 11 13.5523 11 13C11 12.4477 10.5523 12 10 12H7Z" fill="#242729"/>
</svg>
