<svg width="32" height="32" viewBox="0 0 32 32" fill="none" xmlns="http://www.w3.org/2000/svg">
<path d="M18 10C18 11.1046 17.1046 12 16 12C14.8954 12 14 11.1046 14 10C14 8.89543 14.8954 8 16 8C17.1046 8 18 8.89543 18 10Z" fill="#00A49D"/>
<path fill-rule="evenodd" clip-rule="evenodd" d="M24 10.65C24 6.06513 20.6016 2 16 2C11.3984 2 8 6.06513 8 10.65C8 13.0676 9.08403 15.8558 10.2009 18.1484C11.3553 20.5179 12.7114 22.6845 13.5477 23.952C14.7151 25.7216 17.2849 25.7216 18.4523 23.952C19.2886 22.6845 20.6447 20.5179 21.7991 18.1484C22.916 15.8558 24 13.0676 24 10.65ZM16 4C19.31 4 22 6.97294 22 10.65C22 14.5065 18.4086 20.3866 16.7829 22.8507C16.406 23.422 15.594 23.422 15.2171 22.8507C13.5914 20.3866 10 14.5065 10 10.65C10 6.97294 12.69 4 16 4Z" fill="#00A49D"/>
<path d="M3 21C3 19.3431 4.34315 18 6 18H7C7.55228 18 8 18.4477 8 19C8 19.5523 7.55228 20 7 20H6C5.44772 20 5 20.4477 5 21V27C5 27.5523 5.44772 28 6 28H26C26.5523 28 27 27.5523 27 27V21C27 20.4477 26.5523 20 26 20H25C24.4477 20 24 19.5523 24 19C24 18.4477 24.4477 18 25 18H26C27.6569 18 29 19.3431 29 21V27C29 28.6569 27.6569 30 26 30H6C4.34315 30 3 28.6569 3 27V21Z" fill="#00A49D"/>
</svg>
