<svg width="50" height="50" viewBox="0 0 50 50" fill="none" xmlns="http://www.w3.org/2000/svg">
<path d="M25 46.3447C36.6562 46.3447 46.3446 36.6563 46.3446 25C46.3446 13.3233 36.6348 3.6554 24.9786 3.6554C13.3027 3.6554 3.65625 13.3233 3.65625 25C3.65625 36.6563 13.3232 46.3447 25 46.3447ZM19.5393 30.2108C14.3491 25.0411 11.0429 18.45 14.9563 14.5366C15.1866 14.3063 15.4375 14.0768 15.6679 13.8465C16.8607 12.7161 18.0116 12.7795 19.0366 14.2233L21.7571 18.0947C22.6777 19.434 22.4473 20.1866 21.4643 21.2331L20.6063 22.175C20.2929 22.4679 20.4188 22.8652 20.5643 23.117C20.9625 23.8697 22.092 25.209 23.3054 26.4233C24.5616 27.6786 25.8375 28.7456 26.633 29.1849C26.9259 29.3527 27.3446 29.3947 27.617 29.1438L28.5161 28.2858C29.5205 27.3018 30.3375 27.0509 31.6348 27.9715C32.9455 28.9035 34.264 29.8243 35.5902 30.734C36.908 31.6965 37.2214 32.8893 35.8821 34.1027C35.6527 34.3331 35.4429 34.5849 35.2125 34.8143C31.3 38.7072 24.7286 35.4 19.5393 30.2108Z" fill="#262626" fill-opacity="0.5"/>
</svg>
