<svg width="32" height="32" viewBox="0 0 32 32" fill="none" xmlns="http://www.w3.org/2000/svg">
<path fill-rule="evenodd" clip-rule="evenodd" d="M18.7707 28.6366L18.7564 28.6392L18.6641 28.6847L18.6381 28.6899L18.6199 28.6847L18.5276 28.6392C18.5138 28.6349 18.5034 28.637 18.4964 28.6457L18.4912 28.6587L18.4691 29.2151L18.4756 29.2411L18.4886 29.258L18.6238 29.3542L18.6433 29.3594L18.6589 29.3542L18.7941 29.258L18.8097 29.2372L18.8149 29.2151L18.7928 28.66C18.7894 28.6461 18.782 28.6383 18.7707 28.6366ZM19.1152 28.4897L19.0983 28.4923L18.8578 28.6132L18.8448 28.6262L18.8409 28.6405L18.8643 29.1995L18.8708 29.2151L18.8812 29.2242L19.1425 29.3451C19.159 29.3494 19.1716 29.346 19.1802 29.3347L19.1854 29.3165L19.1412 28.5183C19.1369 28.5027 19.1282 28.4932 19.1152 28.4897ZM18.1857 28.4923C18.18 28.4888 18.1732 28.4877 18.1666 28.4891C18.1601 28.4906 18.1544 28.4945 18.1506 28.5001L18.1428 28.5183L18.0986 29.3165C18.0995 29.3321 18.1069 29.3425 18.1207 29.3477L18.1402 29.3451L18.4015 29.2242L18.4145 29.2138L18.4197 29.1995L18.4418 28.6405L18.4379 28.6249L18.4249 28.6119L18.1857 28.4923Z" fill="#00A49D"/>
<path fill-rule="evenodd" clip-rule="evenodd" d="M14.6702 3.04182C16.1827 1.74918 18.0559 1.77044 19.4968 2.50349C20.9427 1.76864 22.7935 1.76946 24.3028 3.02428C26.3002 4.68489 26.5344 7.53348 25.0043 9.5029C24.5269 10.1174 23.6728 10.9555 22.9489 11.6389C22.1867 12.3586 21.4296 13.0355 21.0576 13.3651L21.0517 13.3703C21.0241 13.395 20.9328 13.4764 20.8368 13.5487C20.7088 13.6451 20.4707 13.8065 20.1331 13.9072C19.7184 14.031 19.2754 14.031 18.8607 13.9072C18.5231 13.8065 18.285 13.6451 18.157 13.5487C18.061 13.4764 17.9698 13.395 17.9421 13.3703L17.9363 13.3651C17.5643 13.0355 16.8071 12.3586 16.0449 11.6389C15.321 10.9555 14.467 10.1174 13.9895 9.5029C12.4418 7.51075 12.7396 4.69179 14.6702 3.04182ZM20.2024 4.3994C19.8599 4.61193 19.6886 4.7182 19.6065 4.73672L19.5975 4.73877C19.5469 4.7502 19.5216 4.75592 19.4963 4.75592C19.471 4.75591 19.4457 4.75018 19.3951 4.73871L19.3861 4.73666C19.304 4.7181 19.1331 4.61191 18.7913 4.39955C17.9257 3.86171 16.8372 3.82075 15.9696 4.56221C14.8423 5.52563 14.6836 7.13642 15.5689 8.27586C16.3049 9.22323 18.5324 11.2213 19.2624 11.868C19.3441 11.9404 19.385 11.9765 19.4326 11.9907C19.4742 12.0032 19.5197 12.0032 19.5612 11.9907C19.6089 11.9765 19.6497 11.9404 19.7314 11.868C20.4614 11.2213 22.6889 9.22323 23.4249 8.27586C24.3102 7.13642 24.1709 5.5155 23.0242 4.56221C22.1425 3.82918 21.0631 3.86524 20.2024 4.3994Z" fill="#00A49D"/>
<path d="M2 14.0001C2 13.4478 2.44772 13.0001 3 13.0001H7.93947C8.62807 13.0001 9.305 13.1778 9.90475 13.5161L15.6909 16.7801C16.3588 17.1569 16.8301 17.7472 17.0679 18.4169L25.6032 17.2961C27.3421 17.0678 29.0214 18.0212 29.7163 19.6315C30.5974 21.673 29.6076 24.0379 27.5351 24.8432L15.9272 29.3539C14.6868 29.8359 13.2879 29.6695 12.1953 28.9099L7.35513 25.5453C7.02003 25.3124 6.62168 25.1876 6.21357 25.1876H3C2.44772 25.1876 2 24.7398 2 24.1876C2 23.6353 2.44772 23.1876 3 23.1876H6.21357C7.0298 23.1876 7.82649 23.4373 8.49669 23.9031L13.3368 27.2677C13.8832 27.6475 14.5826 27.7307 15.2028 27.4897L26.8107 22.979C27.8267 22.5842 28.312 21.4248 27.88 20.424C27.5393 19.6346 26.7161 19.1671 25.8636 19.2791L17.079 20.4326C17.0172 20.6115 16.9379 20.7872 16.8404 20.9575C16.0874 22.2723 14.4842 22.8361 13.0739 22.2821L9.63435 20.9308C9.12031 20.7289 8.8673 20.1484 9.06925 19.6344C9.27119 19.1204 9.85161 18.8674 10.3657 19.0693L13.8052 20.4206C14.2919 20.6117 14.8451 20.4172 15.1049 19.9635C15.3955 19.4562 15.2174 18.8093 14.7082 18.5221L8.92211 15.2581C8.62223 15.0889 8.28377 15.0001 7.93947 15.0001H3C2.44772 15.0001 2 14.5523 2 14.0001Z" fill="#00A49D"/>
</svg>
