<svg width="24" height="24" viewBox="0 0 24 24" fill="none" xmlns="http://www.w3.org/2000/svg">
<path fill-rule="evenodd" clip-rule="evenodd" d="M6.87109 1.5H15.931C16.5347 1.49999 17.033 1.49999 17.4389 1.53315C17.8604 1.56759 18.248 1.64151 18.612 1.82698C19.1765 2.1146 19.6354 2.57354 19.923 3.13803C20.1085 3.50203 20.1824 3.88956 20.2169 4.31113C20.25 4.71702 20.25 5.21529 20.25 5.81901V18.1731C20.25 18.231 20.2434 18.2874 20.231 18.3415C20.211 18.6449 20.1699 18.8734 20.0854 19.0819C19.9402 19.4406 19.7048 19.7557 19.4022 19.9968C19.0594 20.27 18.5971 20.407 17.6725 20.6809L13.6225 21.8806C12.0552 22.345 11.2715 22.5771 10.6506 22.4055C10.1069 22.2552 9.6394 21.9062 9.34086 21.4275C9.33012 21.4103 9.31972 21.3928 9.30965 21.375H6.375C5.13236 21.375 4.125 20.3676 4.125 19.125V18C4.125 17.5858 4.46079 17.25 4.875 17.25C5.28921 17.25 5.625 17.5858 5.625 18V19.125C5.625 19.5392 5.96079 19.875 6.375 19.875H9.01486C9 19.4783 9 19.0042 9 18.4289V7.52085C9 6.55656 9 6.07441 9.16457 5.66811C9.30984 5.30945 9.54515 4.99432 9.84778 4.75316C10.1906 4.47996 10.6529 4.34302 11.5775 4.06912L15.1865 3H6.9C6.46759 3 6.18838 3.00059 5.97588 3.01795C5.77213 3.03459 5.69659 3.06285 5.65951 3.08175C5.51839 3.15365 5.40365 3.26839 5.33175 3.40951C5.31285 3.44659 5.28459 3.52213 5.26795 3.72588C5.25058 3.93838 5.25 4.21759 5.25 4.65V6C5.25 6.41422 4.91421 6.75 4.5 6.75C4.08579 6.75 3.75 6.41422 3.75 6L3.75 4.62109C3.74999 4.22574 3.74997 3.88466 3.77293 3.60373C3.79715 3.30722 3.85064 3.01231 3.99524 2.72852C4.21095 2.30516 4.55516 1.96095 4.97852 1.74524C5.26231 1.60064 5.55722 1.54715 5.85373 1.52293C6.13465 1.49998 6.47574 1.49999 6.87109 1.5ZM18.75 6.32109V17.2292C18.75 18.3263 18.7233 18.4492 18.6951 18.5188C18.6467 18.6383 18.5683 18.7434 18.4674 18.8238C18.4087 18.8706 18.2984 18.931 17.2465 19.2427L13.1965 20.4424C12.386 20.6825 11.8736 20.8328 11.4852 20.9111C11.1747 20.9737 11.0657 20.9621 11.0489 20.9594C10.8687 20.9092 10.7136 20.7934 10.6143 20.6348C10.6069 20.6196 10.5648 20.5184 10.5367 20.2028C10.5014 19.8082 10.5 19.2742 10.5 18.4289V7.52085C10.5 6.42369 10.5267 6.30081 10.5549 6.23122C10.6033 6.11167 10.6817 6.00663 10.7826 5.92624C10.8413 5.87945 10.9516 5.81898 12.0035 5.50734L16.0535 4.30759C16.864 4.0675 17.3764 3.91717 17.7648 3.83889C18.0754 3.77628 18.1844 3.78787 18.2011 3.79064C18.3813 3.8408 18.5364 3.95656 18.6357 4.11517C18.6431 4.13039 18.6852 4.2316 18.7133 4.54721C18.7486 4.9418 18.75 5.47582 18.75 6.32109ZM18.6346 4.11306C18.6346 4.11306 18.635 4.1138 18.6357 4.11517L18.6346 4.11306ZM18.2034 3.79112L18.2011 3.79064C18.2026 3.79089 18.2034 3.79112 18.2034 3.79112ZM11.0466 20.9589L11.0489 20.9594C11.0474 20.9591 11.0466 20.9589 11.0466 20.9589ZM10.6154 20.6369C10.6154 20.6369 10.615 20.6362 10.6143 20.6348L10.6154 20.6369Z" fill="#00A49D"/>
<path d="M5.03033 9.21967C4.73744 8.92678 4.26256 8.92678 3.96967 9.21967C3.67678 9.51257 3.67678 9.98744 3.96967 10.2803L4.93934 11.25H2.25C1.83579 11.25 1.5 11.5858 1.5 12C1.5 12.4142 1.83579 12.75 2.25 12.75H4.93934L3.96967 13.7197C3.67678 14.0126 3.67678 14.4874 3.96967 14.7803C4.26256 15.0732 4.73744 15.0732 5.03033 14.7803L7.28033 12.5303C7.57322 12.2374 7.57322 11.7626 7.28033 11.4697L5.03033 9.21967Z" fill="#00A49D"/>
</svg>
