<svg width="28" height="28" viewBox="0 0 28 28" fill="none" xmlns="http://www.w3.org/2000/svg">
<path d="M18.0089 1.80033C17.5695 1.63879 17.087 1.87706 16.9312 2.33251C16.7753 2.78796 17.0052 3.28813 17.4445 3.44966C19.6494 4.26027 21.1032 6.17755 21.1032 8.31249C21.1032 10.4474 19.6494 12.3647 17.4445 13.1753C17.0052 13.3369 16.7753 13.837 16.9312 14.2925C17.087 14.7479 17.5695 14.9862 18.0089 14.8247C20.7537 13.8155 22.7914 11.3255 22.7914 8.31249C22.7914 5.29946 20.7537 2.80944 18.0089 1.80033Z" fill="#707070"/>
<path d="M21.1032 19.25C20.637 19.25 20.2591 19.6417 20.2591 20.125C20.2591 20.6082 20.637 21 21.1032 21H21.9473C22.8797 21 23.6355 21.7835 23.6355 22.75V25.375C23.6355 25.8582 24.0135 26.25 24.4797 26.25C24.9458 26.25 25.3238 25.8582 25.3238 25.375V22.75C25.3238 20.817 23.8121 19.25 21.9473 19.25H21.1032Z" fill="#707070"/>
<path fill-rule="evenodd" clip-rule="evenodd" d="M10.6668 15.1136C14.2268 15.1136 17.1128 12.1221 17.1128 8.43181C17.1128 4.74155 14.2268 1.74999 10.6668 1.74999C7.1068 1.74999 4.22083 4.74155 4.22083 8.43181C4.22083 12.1221 7.1068 15.1136 10.6668 15.1136ZM10.6668 13.3636C13.2945 13.3636 15.4246 11.1556 15.4246 8.43181C15.4246 5.70804 13.2945 3.49999 10.6668 3.49999C8.03918 3.49999 5.90906 5.70804 5.90906 8.43181C5.90906 11.1556 8.03918 13.3636 10.6668 13.3636Z" fill="#707070"/>
<path d="M3.37671 22.75C3.37671 21.7835 4.13256 21 5.06495 21H16.0385C16.9709 21 17.7267 21.7835 17.7267 22.75V25.375C17.7267 25.8582 18.1046 26.25 18.5708 26.25C19.037 26.25 19.4149 25.8582 19.4149 25.375V22.75C19.4149 20.817 17.9032 19.25 16.0385 19.25H5.06495C3.20017 19.25 1.68848 20.817 1.68848 22.75V25.375C1.68848 25.8582 2.0664 26.25 2.53259 26.25C2.99879 26.25 3.37671 25.8582 3.37671 25.375V22.75Z" fill="#707070"/>
</svg>
